<svg xmlns="http://www.w3.org/2000/svg" viewBox="0 0 32 32">
  <defs>
    <linearGradient id="grad" x1="0%" y1="0%" x2="100%" y2="100%">
      <stop offset="0%" style="stop-color:#2E1065;stop-opacity:1" />
      <stop offset="100%" style="stop-color:#7C3AED;stop-opacity:1" />
    </linearGradient>
  </defs>
  <circle cx="16" cy="16" r="15" fill="url(#grad)"/>
  <path d="M12 8v12c0 2.2-1.8 4-4 4s-4-1.8-4-4 1.8-4 4-4c.7 0 1.4.2 2 .5V6l12-2v14c0 2.2-1.8 4-4 4s-4-1.8-4-4 1.8-4 4-4c.7 0 1.4.2 2 .5V8l-8 1.3" fill="none" stroke="white" stroke-width="1.5" stroke-linecap="round" stroke-linejoin="round" transform="translate(4, 2) scale(0.75)"/>
</svg>
